# xmcd
# 
# Track frame offsets:
#     150
#     33567
#     62925
#     100848
#     133755
#     168135
#     204716
# 
# Disc length: 3262
# 
# Revision: 0
# Processed by: cddbd v1.5.2PL0 Copyright (c) Steve Scherf et al.
# Submitted via: fre:ac v1.0.17
# 
DISCID=610cbc07
DTITLE=Astrid Lindgren - Ferien auf Saltkrokan
DYEAR=0
DGENRE=
TTITLE0=01_Ferien_auf_Saltkrokan_Teil_1_CD4
TTITLE1=02_Ferien_auf_Saltkrokan_Teil_1_CD4
TTITLE2=03_Ferien_auf_Saltkrokan_Teil_1_CD4
TTITLE3=04_Ferien_auf_Saltkrokan_Teil_1_CD4
TTITLE4=05_Ferien_auf_Saltkrokan_Teil_1_CD4
TTITLE5=06_Ferien_auf_Saltkrokan_Teil_1_CD4
TTITLE6=07_Ferien_auf_Saltkrokan_Teil_1_CD4
EXTD=
EXTT0=
EXTT1=
EXTT2=
EXTT3=
EXTT4=
EXTT5=
EXTT6=
PLAYORDER=
